<svg width="32" height="32" viewBox="0 0 32 32" fill="none" xmlns="http://www.w3.org/2000/svg">
  <defs>
    <!-- Background gradient -->
    <linearGradient id="bgGradient" x1="0%" y1="0%" x2="100%" y2="100%">
      <stop offset="0%" style="stop-color:#1e3a8a;stop-opacity:1" />
      <stop offset="50%" style="stop-color:#1d4ed8;stop-opacity:1" />
      <stop offset="100%" style="stop-color:#1e40af;stop-opacity:1" />
    </linearGradient>
    
    <!-- JavaScript yellow gradient -->
    <linearGradient id="jsGradient" x1="0%" y1="0%" x2="100%" y2="100%">
      <stop offset="0%" style="stop-color:#fbbf24;stop-opacity:1" />
      <stop offset="100%" style="stop-color:#f59e0b;stop-opacity:1" />
    </linearGradient>
    
    <!-- White glow -->
    <filter id="glow">
      <feGaussianBlur stdDeviation="0.5" result="coloredBlur"/>
      <feMerge> 
        <feMergeNode in="coloredBlur"/>
        <feMergeNode in="SourceGraphic"/>
      </feMerge>
    </filter>
  </defs>
  
  <!-- Main background -->
  <rect width="32" height="32" rx="6" fill="url(#bgGradient)"/>
  
  <!-- Inner border -->
  <rect x="1" y="1" width="30" height="30" rx="5" fill="none" stroke="#ffffff" stroke-width="0.5" opacity="0.3"/>
  
  <!-- JavaScript "JS" -->
  <text x="16" y="14" font-family="Arial Black, Arial, sans-serif" font-size="9" font-weight="900" text-anchor="middle" fill="url(#jsGradient)" filter="url(#glow)">JS</text>
  
  <!-- Book/learning icon -->
  <path d="M6 18 L6 24 C6 24.5 6.5 25 7 25 L11 25 C11.5 25 12 24.5 12 24 L12 19 L11 18 Z" fill="#ffffff" opacity="0.8"/>
  <path d="M20 18 L20 24 C20 24.5 20.5 25 21 25 L25 25 C25.5 25 26 24.5 26 24 L26 19 L25 18 Z" fill="#ffffff" opacity="0.8"/>
  <path d="M11 18 L21 18 C21.5 18 22 18.5 22 19 L22 24 C22 24.5 21.5 25 21 25 L11 25 C10.5 25 10 24.5 10 24 L10 19 C10 18.5 10.5 18 11 18 Z" fill="#fbbf24"/>
  
  <!-- Code brackets -->
  <text x="5" y="30" font-family="Consolas, monospace" font-size="5" fill="#fbbf24" opacity="0.7" font-weight="bold">&lt;</text>
  <text x="24" y="30" font-family="Consolas, monospace" font-size="5" fill="#fbbf24" opacity="0.7" font-weight="bold">/&gt;</text>
  
  <!-- Progress indicators -->
  <circle cx="8" cy="8" r="1" fill="#10b981" opacity="0.9"/>
  <circle cx="12" cy="6" r="1" fill="#3b82f6" opacity="0.9"/>
  <circle cx="16" cy="5" r="1" fill="#8b5cf6" opacity="0.9"/>
  <circle cx="20" cy="6" r="1" fill="#f59e0b" opacity="0.9"/>
  <circle cx="24" cy="8" r="1" fill="#ef4444" opacity="0.9"/>
</svg>